<svg width="11" height="12" viewBox="0 0 11 12" fill="none" xmlns="http://www.w3.org/2000/svg">
<path d="M1.87455e-06 0.59655L1.28442e-06 11.3283C0.000420895 11.437 0.0373462 11.5435 0.106802 11.6363C0.176258 11.7292 0.275614 11.805 0.394176 11.8555C0.512739 11.9059 0.646017 11.9292 0.779666 11.9228C0.913314 11.9164 1.04227 11.8805 1.15266 11.819L10.703 6.45311C11.099 6.23072 11.099 5.69533 10.703 5.47234L1.15266 0.106467C1.0425 0.0443567 0.91348 0.00793392 0.779609 0.00115565C0.645738 -0.00562263 0.512138 0.0175029 0.393325 0.0680197C0.274511 0.118536 0.175028 0.194512 0.105685 0.287693C0.0363416 0.380873 -0.000208881 0.487694 1.87455e-06 0.59655Z" fill="white"/>
</svg>
